<svg id="Layer_1" data-name="Layer 1" xmlns="http://www.w3.org/2000/svg" viewBox="0 0 261.96 261.96"><defs><style>.cls-1{fill:#46c3e3;}.cls-2{fill:#e3f8fb;}.cls-3{fill:#48c4e2;}</style></defs><title>mini-logo</title><circle class="cls-1" cx="130.98" cy="130.98" r="130.98"/><path class="cls-2" d="M544.18,301.5l-1.12-1.33-1.81-2.28a.35.35,0,0,0-.13-.42,27.61,27.61,0,0,1,0-11c4.15-17.37,16.46-27.12,32.08-33.13a81.22,81.22,0,0,1,57.84-.84c15.24,5.43,27.47,14.42,33.4,30.28,3.65,9.76,2.47,14.7-5.21,21.84q-22.41,20.83-44.74,41.75c-2.5,2.34-3.32,4,.58,6.41,14.82,9.13,25.4,35.46,14.49,54.2-11.57,19.88-39,20.86-51.56,1.62-9.44-14.42-5.34-34.71,4.37-47.17,2.88-3.69,6-7.16,10.4-9.27,2.24-1.08,2.21-2.71.52-4.32-10.83-10.28-21.22-21-32.77-30.56-.34-1-.74-2-1.95-2.25l-.24-.24A80.94,80.94,0,0,0,544.18,301.5Zm100,9.54c-12,2.1-24,4.63-36.31,5-2.82.09-2.94,2-2.93,4.12,0,7.42,0,14.84.06,22.26,0,1.54-.9,3.76,1.06,4.46,1.69.61,2.94-1.19,4.13-2.31,9.27-8.69,18.63-17.28,27.71-26.16,2.27-2.22,5.9-3.42,6.37-7.26l.78-.2-.31-.48Zm-45.91-.83c20.54.31,33.89-1.34,50.17-7.56,11.56-4.42,13.83-7,9.74-19-3.15-9.24-9.9-15.58-18-20.24-18.25-10.5-37.82-12.26-58-6.83-13,3.51-24.34,10-31.78,21.81-6.92,11-5.18,18.42,5.52,23.65.67.33,1.41.5,2.11.77C571.66,308,585.89,309.71,598.26,310.21Zm-19,78.77c0,1.06,0,2.12,0,3.18.61,11.71,9.45,21.9,20.37,23.52s21.63-5.32,25.67-16.61c4.46-12.45-1.27-31.11-11.95-38.9-7.77-5.68-16.24-5.16-22.92,1.84A38.88,38.88,0,0,0,579.23,389Zm21.69-57.11c0-3.78-.15-7.57,0-11.35.17-3.31-1.21-4.62-4.45-4.73a142.39,142.39,0,0,1-30.93-4.44c-1-.26-2.34-.77-2.92.28-.72,1.33.66,2.14,1.51,2.93,3.31,3.1,6.7,6.12,10,9.24q11.35,10.77,22.64,21.61c.88.84,1.71,1.95,3.06,1.44s1-2,1-3.18C601,339.74,600.92,335.81,600.92,331.87Z" transform="translate(-474.3 -213.21)"/><path class="cls-3" d="M550.21,301.5a80.94,80.94,0,0,1,14.11,13.31A21.66,21.66,0,0,1,550.21,301.5Z" transform="translate(-474.3 -213.21)"/><path class="cls-3" d="M564.56,315.06c1.21.26,1.6,1.23,1.95,2.25C565.15,317.18,564.77,316.19,564.56,315.06Z" transform="translate(-474.3 -213.21)"/><path class="cls-3" d="M650.2,311l.57-.55.31.48-.78.2Z" transform="translate(-474.3 -213.21)"/></svg>